<svg width="20" height="20" viewBox="0 0 20 20" fill="none" xmlns="http://www.w3.org/2000/svg">
<path fill-rule="evenodd" clip-rule="evenodd" d="M9.16713 2.65838C9.22469 2.47584 9.33895 2.31641 9.4933 2.20324C9.64766 2.09007 9.83407 2.02905 10.0255 2.02905C10.2169 2.02905 10.4033 2.09007 10.5576 2.20324C10.712 2.31641 10.8262 2.47584 10.8838 2.65838L12.4338 7.42505H17.4338C17.632 7.41755 17.8273 7.47516 17.9897 7.58908C18.1521 7.70299 18.2728 7.86695 18.3332 8.05589C18.3937 8.24484 18.3906 8.44838 18.3245 8.63542C18.2584 8.82247 18.1329 8.98273 17.9671 9.09171L13.9088 12.0334L15.4588 16.8084C15.5201 16.9903 15.5216 17.187 15.4632 17.3698C15.4048 17.5526 15.2894 17.712 15.134 17.8246C14.9786 17.9372 14.7912 17.9972 14.5993 17.9958C14.4073 17.9944 14.2209 17.9316 14.0671 17.8167L10.0005 14.8417L5.94213 17.7917C5.78839 17.9066 5.60193 17.9694 5.41 17.9708C5.21807 17.9722 5.0307 17.9122 4.87527 17.7996C4.71984 17.687 4.60449 17.5276 4.54605 17.3448C4.48762 17.162 4.48916 16.9653 4.55046 16.7834L6.10046 12.0084L2.04213 9.06671C1.87637 8.95773 1.75084 8.79747 1.68473 8.61042C1.61862 8.42338 1.61556 8.21984 1.67603 8.03089C1.73649 7.84195 1.85715 7.67799 2.01956 7.56408C2.18198 7.45016 2.37722 7.39255 2.57546 7.40005H7.57546L9.16713 2.65838Z" fill="#FBAD39"/>
</svg>
